<svg preserveAspectRatio="none" width="100%" height="100%" overflow="visible" style="display: block;" viewBox="0 0 40 40" fill="none" xmlns="http://www.w3.org/2000/svg">
<g id="fluent:backpack-48-filled">
<path id="Vector" d="M17.6492 15.4167C17.0571 15.4169 16.4894 15.6522 16.0708 16.0708C15.6522 16.4894 15.4169 17.0571 15.4167 17.6492C15.4167 17.7967 15.5367 17.9167 15.6842 17.9167H24.3167C24.3518 17.9168 24.3867 17.9099 24.4192 17.8965C24.4517 17.8831 24.4812 17.8634 24.5061 17.8386C24.5309 17.8137 24.5506 17.7842 24.564 17.7517C24.5774 17.7192 24.5843 17.6843 24.5842 17.6492C24.5839 17.0571 24.3487 16.4894 23.93 16.0708C23.5114 15.6522 22.9437 15.4169 22.3517 15.4167H17.6492ZM20 3.33333C18.3598 3.33327 16.7772 3.93783 15.5548 5.0314C14.3324 6.12496 13.556 7.63078 13.3742 9.26083C9.36583 11.56 6.66667 15.8817 6.66667 20.8333V23.3333H33.3333V20.8333C33.3333 15.8817 30.6333 11.56 26.6258 9.26083C26.444 7.63078 25.6676 6.12496 24.4452 5.0314C23.2228 3.93783 21.6402 3.33327 20 3.33333ZM20 7.5C18.53 7.5 17.1158 7.7375 15.7933 8.1775C16.1487 7.35694 16.7362 6.65822 17.4837 6.16738C18.2311 5.67654 19.1058 5.41502 20 5.41502C20.8942 5.41502 21.7689 5.67654 22.5163 6.16738C23.2638 6.65822 23.8513 7.35694 24.2067 8.1775C22.8498 7.72763 21.4295 7.49887 20 7.5ZM13.3333 17.6492C13.3336 16.5046 13.7883 15.407 14.5977 14.5977C15.407 13.7883 16.5046 13.3336 17.6492 13.3333H22.3508C23.4954 13.3336 24.593 13.7883 25.4023 14.5977C26.2117 15.407 26.6664 16.5046 26.6667 17.6492C26.6668 17.9579 26.606 18.2637 26.4879 18.5489C26.3698 18.8342 26.1967 19.0934 25.9784 19.3117C25.7601 19.53 25.5009 19.7032 25.2156 19.8213C24.9303 19.9394 24.6246 20.0001 24.3158 20H15.6833C15.3747 20 15.069 19.9392 14.7838 19.821C14.4987 19.7029 14.2396 19.5297 14.0213 19.3114C13.8031 19.0931 13.63 18.8339 13.512 18.5487C13.3939 18.2635 13.3332 17.9578 13.3333 17.6492ZM13.3333 25.4167V28.125C13.3333 28.4013 13.4431 28.6662 13.6384 28.8616C13.8338 29.0569 14.0987 29.1667 14.375 29.1667C14.6513 29.1667 14.9162 29.0569 15.1116 28.8616C15.3069 28.6662 15.4167 28.4013 15.4167 28.125V25.4167H33.3333V32.2917C33.3333 34.7083 31.375 36.6667 28.9583 36.6667H11.0417C9.88134 36.6667 8.76855 36.2057 7.94807 35.3853C7.1276 34.5648 6.66667 33.452 6.66667 32.2917V25.4167H13.3333Z" fill="var(--fill-0, black)"/>
</g>
</svg>
