<svg preserveAspectRatio="none" width="100%" height="100%" overflow="visible" style="display: block;" viewBox="0 0 40 40" fill="none" xmlns="http://www.w3.org/2000/svg">
<g id="tabler:coin-filled">
<path id="Vector" d="M28.3333 5.56649C30.867 7.0293 32.971 9.13328 34.4338 11.667C35.8966 14.2006 36.6667 17.0747 36.6667 20.0004C36.6666 22.926 35.8965 25.8001 34.4337 28.3337C32.9708 30.8674 30.8668 32.9713 28.3331 34.4341C25.7995 35.8969 22.9254 36.667 19.9997 36.6669C17.0741 36.6669 14.2 35.8967 11.6664 34.4338C9.13275 32.971 7.02882 30.867 5.56606 28.3333C4.1033 25.7996 3.33326 22.9255 3.33333 19.9998L3.34167 19.4598C3.43501 16.5815 4.27258 13.7764 5.77273 11.3181C7.27289 8.85986 9.38442 6.83224 11.9015 5.43296C14.4186 4.03368 17.2552 3.31048 20.135 3.33388C23.0148 3.35729 25.8393 4.12648 28.3333 5.56649ZM20 9.99982C19.558 9.99982 19.134 10.1754 18.8215 10.488C18.5089 10.8005 18.3333 11.2245 18.3333 11.6665C17.0073 11.6665 15.7355 12.1933 14.7978 13.131C13.8601 14.0686 13.3333 15.3404 13.3333 16.6665C13.3333 17.9926 13.8601 19.2643 14.7978 20.202C15.7355 21.1397 17.0073 21.6665 18.3333 21.6665V24.9998C18.0569 25.0151 17.781 24.9627 17.5294 24.8471C17.2779 24.7315 17.0584 24.5562 16.89 24.3365L16.7767 24.1682C16.5486 23.8004 16.1865 23.5358 15.7669 23.4302C15.3473 23.3246 14.903 23.3863 14.5281 23.6024C14.1532 23.8184 13.877 24.1718 13.7579 24.5878C13.6388 25.0038 13.6862 25.4498 13.89 25.8315C14.3154 26.5693 14.9222 27.1862 15.6528 27.6237C16.3835 28.0612 17.2138 28.3048 18.065 28.3315H18.3333C18.333 28.74 18.4827 29.1344 18.754 29.4398C19.0253 29.7452 19.3993 29.9404 19.805 29.9882L20 29.9998C20.442 29.9998 20.8659 29.8242 21.1785 29.5117C21.4911 29.1991 21.6667 28.7752 21.6667 28.3332L21.96 28.3248C23.2593 28.2497 24.4782 27.6709 25.3576 26.7114C26.2369 25.7519 26.7075 24.4874 26.6693 23.1864C26.6311 21.8855 26.0872 20.6507 25.153 19.7444C24.2189 18.8382 22.9682 18.3319 21.6667 18.3332V14.9998C22.2633 14.9798 22.785 15.2332 23.11 15.6632L23.2233 15.8315C23.4514 16.1992 23.8135 16.4639 24.2331 16.5695C24.6527 16.6751 25.097 16.6133 25.4719 16.3973C25.8468 16.1812 26.123 15.8279 26.2421 15.4119C26.3612 14.9959 26.3138 14.5499 26.11 14.1682C25.6848 13.4301 25.0781 12.8128 24.3474 12.375C23.6168 11.9372 22.7864 11.6933 21.935 11.6665H21.6667C21.6667 11.2245 21.4911 10.8005 21.1785 10.488C20.8659 10.1754 20.442 9.99982 20 9.99982ZM21.6667 21.6665C22.1087 21.6665 22.5326 21.8421 22.8452 22.1546C23.1577 22.4672 23.3333 22.8911 23.3333 23.3332C23.3333 23.7752 23.1577 24.1991 22.8452 24.5117C22.5326 24.8242 22.1087 24.9998 21.6667 24.9998V21.6665ZM18.3333 14.9998V18.3332C17.8913 18.3332 17.4674 18.1576 17.1548 17.845C16.8423 17.5324 16.6667 17.1085 16.6667 16.6665C16.6667 16.2245 16.8423 15.8005 17.1548 15.488C17.4674 15.1754 17.8913 14.9998 18.3333 14.9998Z" fill="var(--fill-0, black)"/>
</g>
</svg>
