<svg preserveAspectRatio="none" width="100%" height="100%" overflow="visible" style="display: block;" viewBox="0 0 40 40" fill="none" xmlns="http://www.w3.org/2000/svg">
<g id="typcn:arrow-back">
<path id="Vector" d="M20 15.0983V10.8333C19.9995 10.504 19.9015 10.1821 19.7183 9.90836C19.5352 9.6346 19.2751 9.42119 18.9708 9.295C18.6666 9.16881 18.3318 9.1355 18.0087 9.19927C17.6855 9.26304 17.3885 9.42103 17.155 9.65333L6.66667 20L17.155 30.345C17.3094 30.5003 17.493 30.6236 17.6952 30.7077C17.8975 30.7918 18.1143 30.8351 18.3333 30.8351C18.5523 30.8351 18.7692 30.7918 18.9714 30.7077C19.1736 30.6236 19.3572 30.5003 19.5117 30.345C19.8242 30.0325 19.9999 29.6087 20 29.1667V25.0183C24.5833 25.1317 29.5917 25.9617 33.3333 31.6667V30C33.3333 22.2783 27.5 15.9283 20 15.0983Z" fill="var(--fill-0, black)"/>
</g>
</svg>
