<svg preserveAspectRatio="none" width="100%" height="100%" overflow="visible" style="display: block;" viewBox="0 0 40 40" fill="none" xmlns="http://www.w3.org/2000/svg">
<g id="majesticons:map-marker">
<path id="Vector" fill-rule="evenodd" clip-rule="evenodd" d="M20 35L21.18 36.1767C21.0252 36.3321 20.8411 36.4555 20.6385 36.5396C20.4359 36.6238 20.2186 36.6671 19.9992 36.6671C19.7797 36.6671 19.5625 36.6238 19.3598 36.5396C19.1572 36.4555 18.9732 36.3321 18.8183 36.1767L18.8083 36.165L18.78 36.1367L18.6767 36.0317C18.0892 35.4264 17.5114 34.8119 16.9433 34.1883C15.5179 32.6253 14.1524 31.0086 12.85 29.3417C11.3633 27.425 9.84333 25.2583 8.68833 23.1183C7.55833 21.02 6.66667 18.7467 6.66667 16.6667C6.66667 9.10167 12.6533 3.33333 20 3.33333C27.3467 3.33333 33.3333 9.10167 33.3333 16.6667C33.3333 18.7467 32.4417 21.02 31.3117 23.1167C30.1567 25.26 28.6383 27.425 27.15 29.3417C25.3279 31.6735 23.383 33.9067 21.3233 36.0317L21.22 36.1367L21.1917 36.165L21.1817 36.175L20 35ZM20 21.6667C21.3261 21.6667 22.5979 21.1399 23.5355 20.2022C24.4732 19.2645 25 17.9927 25 16.6667C25 15.3406 24.4732 14.0688 23.5355 13.1311C22.5979 12.1935 21.3261 11.6667 20 11.6667C18.6739 11.6667 17.4021 12.1935 16.4645 13.1311C15.5268 14.0688 15 15.3406 15 16.6667C15 17.9927 15.5268 19.2645 16.4645 20.2022C17.4021 21.1399 18.6739 21.6667 20 21.6667Z" fill="var(--fill-0, black)"/>
</g>
</svg>
