<svg preserveAspectRatio="none" width="100%" height="100%" overflow="visible" style="display: block;" viewBox="0 0 40 40" fill="none" xmlns="http://www.w3.org/2000/svg">
<g id="material-symbols:split-scene">
<path id="Vector" d="M8.33333 33.3333C7.41667 33.3333 6.63222 33.0072 5.98 32.355C5.32778 31.7028 5.00111 30.9178 5 30V10C5 9.08333 5.32667 8.29889 5.98 7.64667C6.63333 6.99444 7.41778 6.66778 8.33333 6.66667H15V33.3333H8.33333ZM18.3333 36.6667V3.33333H21.6667V6.66667H31.6667C32.5833 6.66667 33.3683 6.99333 34.0217 7.64667C34.675 8.3 35.0011 9.08444 35 10V30C35 30.9167 34.6739 31.7017 34.0217 32.355C33.3694 33.0083 32.5844 33.3344 31.6667 33.3333H21.6667V36.6667H18.3333Z" fill="var(--fill-0, black)"/>
</g>
</svg>
