<svg preserveAspectRatio="none" width="100%" height="100%" overflow="visible" style="display: block;" viewBox="0 0 40 40" fill="none" xmlns="http://www.w3.org/2000/svg">
<g id="ri:exchange-2-fill">
<path id="Vector" d="M11.6667 35.8333C9.67754 35.8333 7.76989 35.0432 6.36337 33.6366C4.95684 32.2301 4.16667 30.3225 4.16667 28.3333C4.16667 26.3442 4.95684 24.4366 6.36337 23.03C7.76989 21.6235 9.67754 20.8333 11.6667 20.8333C13.6558 20.8333 15.5634 21.6235 16.97 23.03C18.3765 24.4366 19.1667 26.3442 19.1667 28.3333C19.1667 30.3225 18.3765 32.2301 16.97 33.6366C15.5634 35.0432 13.6558 35.8333 11.6667 35.8333ZM28.3333 19.1667C27.3484 19.1667 26.3731 18.9727 25.4632 18.5958C24.5533 18.2189 23.7265 17.6664 23.03 16.97C22.3336 16.2735 21.7811 15.4467 21.4042 14.5368C21.0273 13.6269 20.8333 12.6516 20.8333 11.6667C20.8333 10.6818 21.0273 9.70648 21.4042 8.79654C21.7811 7.8866 22.3336 7.05981 23.03 6.36337C23.7265 5.66693 24.5533 5.11448 25.4632 4.73757C26.3731 4.36066 27.3484 4.16667 28.3333 4.16667C30.3225 4.16667 32.2301 4.95684 33.6366 6.36337C35.0432 7.76989 35.8333 9.67754 35.8333 11.6667C35.8333 13.6558 35.0432 15.5634 33.6366 16.97C32.2301 18.3765 30.3225 19.1667 28.3333 19.1667ZM5 13.3333C5 11.1232 5.87797 9.00358 7.44078 7.44078C9.00358 5.87797 11.1232 5 13.3333 5H18.3333V8.33333H13.3333C12.0073 8.33333 10.7355 8.86012 9.7978 9.7978C8.86012 10.7355 8.33333 12.0073 8.33333 13.3333V18.3333H5V13.3333ZM31.6667 21.6667V26.6667C31.6667 27.9927 31.1399 29.2645 30.2022 30.2022C29.2645 31.1399 27.9927 31.6667 26.6667 31.6667H21.6667V35H26.6667C28.8768 35 30.9964 34.122 32.5592 32.5592C34.122 30.9964 35 28.8768 35 26.6667V21.6667H31.6667Z" fill="var(--fill-0, black)"/>
</g>
</svg>
