<svg preserveAspectRatio="none" width="100%" height="100%" overflow="visible" style="display: block;" viewBox="0 0 23.5007 36.0017" fill="none" xmlns="http://www.w3.org/2000/svg">
<g id="Group 1321316239">
<path id="Subtract" d="M23.5 24.2506C23.5 30.7402 18.2396 36.0016 11.75 36.0016C5.26039 36.0016 0 30.7402 0 24.2506V19.4294C0 18.8205 0.569714 18.3723 1.16538 18.4984C4.33453 19.1691 7.93378 19.5484 11.75 19.5485C15.5661 19.5485 19.1655 19.169 22.3346 18.4984C22.9303 18.3723 23.5 18.8205 23.5 19.4294V24.2506Z" fill="var(--fill-0, #707070)"/>
<path id="Subtract_2" d="M12.9255 0.907549C12.9255 0.35164 13.4068 -0.0859946 13.953 0.0176189C19.3893 1.04894 23.5004 5.82559 23.5007 11.5619V15.9935C23.5007 16.4273 23.2044 16.8058 22.781 16.9003C20.0954 17.4994 17.0844 17.8865 13.8848 18.0067C13.3585 18.0264 12.9255 17.6017 12.9255 17.075V15.9506C12.9255 15.5163 13.229 15.1491 13.625 14.9708C15.0139 14.3452 15.9811 12.9496 15.9812 11.3275V8.03745C15.9811 6.41528 15.014 5.01894 13.625 4.39322C13.229 4.21484 12.9255 3.84764 12.9255 3.41335V0.907549Z" fill="var(--fill-0, black)"/>
<path id="Subtract_3" d="M10.5754 0.905249C10.5754 0.349342 10.0942 -0.0882916 9.548 0.0153067C4.1116 1.04649 0.000355268 5.82217 0.000238419 11.5586V15.9893C0.000238419 16.4231 0.296584 16.8016 0.719981 16.896C3.40557 17.4951 6.41651 17.8822 9.61608 18.0024C10.1425 18.0222 10.5754 17.5974 10.5754 17.0707V15.9454C10.5754 15.5111 10.272 15.1439 9.87599 14.9655C8.48706 14.34 7.51982 12.9444 7.51977 11.3223V8.03223C7.51978 6.40999 8.48696 5.0137 9.87596 4.38799C10.2719 4.20962 10.5754 3.84241 10.5754 3.40813V0.905249Z" fill="var(--fill-0, #707070)"/>
<rect id="Rectangle 6927" x="9.16515" y="5.44837" width="5.17021" height="8.46035" rx="2.58511" fill="var(--fill-0, #707070)"/>
</g>
</svg>
