<svg preserveAspectRatio="none" width="100%" height="100%" overflow="visible" style="display: block;" viewBox="0 0 33.3333 33.3333" fill="none" xmlns="http://www.w3.org/2000/svg">
<g id="Group">
<path id="Vector" d="M28.3333 1.66667H5C3.15905 1.66667 1.66667 3.15905 1.66667 5V28.3333C1.66667 30.1743 3.15905 31.6667 5 31.6667H28.3333C30.1743 31.6667 31.6667 30.1743 31.6667 28.3333V5C31.6667 3.15905 30.1743 1.66667 28.3333 1.66667Z" stroke="var(--stroke-0, black)" stroke-width="3.33333" stroke-linecap="round" stroke-linejoin="round"/>
<path id="Vector_2" d="M9.16667 10C9.6269 10 10 9.6269 10 9.16667C10 8.70643 9.6269 8.33333 9.16667 8.33333C8.70643 8.33333 8.33333 8.70643 8.33333 9.16667C8.33333 9.6269 8.70643 10 9.16667 10Z" fill="var(--fill-0, black)" stroke="var(--stroke-0, black)" stroke-width="3.33333" stroke-linecap="round" stroke-linejoin="round"/>
<path id="Vector_3" d="M9.83333 9.83333L14.3333 14.3333" stroke="var(--stroke-0, black)" stroke-width="3.33333" stroke-linecap="round" stroke-linejoin="round"/>
<path id="Vector_4" d="M24.1667 10C24.6269 10 25 9.6269 25 9.16667C25 8.70643 24.6269 8.33333 24.1667 8.33333C23.7064 8.33333 23.3333 8.70643 23.3333 9.16667C23.3333 9.6269 23.7064 10 24.1667 10Z" fill="var(--fill-0, black)" stroke="var(--stroke-0, black)" stroke-width="3.33333" stroke-linecap="round" stroke-linejoin="round"/>
<path id="Vector_5" d="M19 14.3333L23.5 9.83333" stroke="var(--stroke-0, black)" stroke-width="3.33333" stroke-linecap="round" stroke-linejoin="round"/>
<path id="Vector_6" d="M9.16667 25C9.6269 25 10 24.6269 10 24.1667C10 23.7064 9.6269 23.3333 9.16667 23.3333C8.70643 23.3333 8.33333 23.7064 8.33333 24.1667C8.33333 24.6269 8.70643 25 9.16667 25Z" fill="var(--fill-0, black)" stroke="var(--stroke-0, black)" stroke-width="3.33333" stroke-linecap="round" stroke-linejoin="round"/>
<path id="Vector_7" d="M9.83333 23.5L14.3333 19" stroke="var(--stroke-0, black)" stroke-width="3.33333" stroke-linecap="round" stroke-linejoin="round"/>
<path id="Vector_8" d="M24.1667 25C24.6269 25 25 24.6269 25 24.1667C25 23.7064 24.6269 23.3333 24.1667 23.3333C23.7064 23.3333 23.3333 23.7064 23.3333 24.1667C23.3333 24.6269 23.7064 25 24.1667 25Z" fill="var(--fill-0, black)" stroke="var(--stroke-0, black)" stroke-width="3.33333" stroke-linecap="round" stroke-linejoin="round"/>
<path id="Vector_9" d="M19 19L23.5 23.5" stroke="var(--stroke-0, black)" stroke-width="3.33333" stroke-linecap="round" stroke-linejoin="round"/>
<path id="Vector_10" d="M16.6667 20C18.5076 20 20 18.5076 20 16.6667C20 14.8257 18.5076 13.3333 16.6667 13.3333C14.8257 13.3333 13.3333 14.8257 13.3333 16.6667C13.3333 18.5076 14.8257 20 16.6667 20Z" stroke="var(--stroke-0, black)" stroke-width="3.33333" stroke-linecap="round" stroke-linejoin="round"/>
</g>
</svg>
