<svg preserveAspectRatio="none" width="100%" height="100%" overflow="visible" style="display: block;" viewBox="0 0 40 40" fill="none" xmlns="http://www.w3.org/2000/svg">
<g id="material-symbols:weight">
<path id="Vector" d="M20.0003 11.6667C20.4725 11.6667 20.8686 11.5067 21.1886 11.1867C21.5086 10.8667 21.6681 10.4711 21.6669 10C21.6658 9.52889 21.5058 9.13333 21.1869 8.81333C20.8681 8.49333 20.4725 8.33333 20.0003 8.33333C19.5281 8.33333 19.1325 8.49333 18.8136 8.81333C18.4947 9.13333 18.3347 9.52889 18.3336 10C18.3325 10.4711 18.4925 10.8672 18.8136 11.1883C19.1347 11.5094 19.5303 11.6689 20.0003 11.6667ZM24.7086 11.6667H27.6253C28.4586 11.6667 29.1808 11.9444 29.7919 12.5C30.4031 13.0556 30.7781 13.7361 30.9169 14.5417L33.2919 31.2083C33.4308 32.2083 33.1742 33.0906 32.5219 33.855C31.8697 34.6194 31.0292 35.0011 30.0003 35H10.0003C8.9725 35 8.13194 34.6183 7.47861 33.855C6.82527 33.0917 6.56861 32.2094 6.70861 31.2083L9.08361 14.5417C9.2225 13.7361 9.5975 13.0556 10.2086 12.5C10.8197 11.9444 11.5419 11.6667 12.3753 11.6667H15.2919C15.2086 11.3889 15.1392 11.1183 15.0836 10.855C15.0281 10.5917 15.0003 10.3067 15.0003 10C15.0003 8.61111 15.4864 7.43056 16.4586 6.45833C17.4308 5.48611 18.6114 5 20.0003 5C21.3892 5 22.5697 5.48611 23.5419 6.45833C24.5142 7.43056 25.0003 8.61111 25.0003 10C25.0003 10.3056 24.9725 10.5906 24.9169 10.855C24.8614 11.1194 24.7919 11.39 24.7086 11.6667Z" fill="var(--fill-0, black)"/>
</g>
</svg>
