<svg width="40" height="40" viewBox="0 0 40 40" fill="none" xmlns="http://www.w3.org/2000/svg">
<path fill-rule="evenodd" clip-rule="evenodd" d="M31.749 26.5685C31.749 33.0581 26.4886 38.3195 19.999 38.3195C13.5094 38.3195 8.24902 33.0581 8.24902 26.5685V21.7473C8.24902 21.1384 8.81874 20.6902 9.4144 20.8163C12.5836 21.487 16.1828 21.8663 19.999 21.8663C23.8151 21.8663 27.4145 21.4869 30.5837 20.8163C31.1793 20.6902 31.749 21.1384 31.749 21.7472V26.5685Z" fill="#5A5A5A"/>
<path fill-rule="evenodd" clip-rule="evenodd" d="M21.1748 3.22551C21.1748 2.6696 21.6561 2.23197 22.2022 2.33558C27.6385 3.36691 31.7497 8.14355 31.75 13.8798V18.3115C31.75 18.7453 31.4537 19.1238 31.0303 19.2182C28.3447 19.8173 25.3337 20.2045 22.1341 20.3246C21.6078 20.3444 21.1748 19.9197 21.1748 19.3929V18.2685C21.1748 17.8343 21.4783 17.4671 21.8742 17.2887C23.2632 16.6632 24.2304 15.2676 24.2305 13.6455V10.3554C24.2304 8.73325 23.2632 7.33691 21.8743 6.71119C21.4783 6.53281 21.1748 6.1656 21.1748 5.73131V3.22551Z" fill="white"/>
<path fill-rule="evenodd" clip-rule="evenodd" d="M18.8242 3.22357C18.8242 2.66766 18.343 2.23003 17.7968 2.33363C12.3604 3.36481 8.24914 8.14049 8.24902 13.8769V18.3076C8.24902 18.7414 8.54537 19.1199 8.96877 19.2143C11.6544 19.8134 14.6653 20.2005 17.8649 20.3207C18.3912 20.3405 18.8242 19.9157 18.8242 19.389V18.2637C18.8242 17.8294 18.5207 17.4622 18.1248 17.2839C16.7358 16.6583 15.7686 15.2627 15.7686 13.6406V10.3505C15.7686 8.72831 16.7357 7.33202 18.1247 6.70631C18.5207 6.52794 18.8242 6.16073 18.8242 5.72644V3.22357Z" fill="#5A5A5A"/>
<rect x="17.4141" y="7.76758" width="5.17021" height="8.46035" rx="2.58511" fill="#5A5A5A"/>
</svg>
