<svg width="40" height="40" viewBox="0 0 40 40" fill="none" xmlns="http://www.w3.org/2000/svg">
<path fill-rule="evenodd" clip-rule="evenodd" d="M31.5 26.5685C31.5 33.0581 26.2396 38.3195 19.75 38.3195C13.2604 38.3195 8 33.0581 8 26.5685V21.7473C8 21.1384 8.56971 20.6902 9.16538 20.8163C12.3345 21.487 15.9338 21.8663 19.75 21.8663C23.5661 21.8663 27.1655 21.4869 30.3346 20.8163C30.9303 20.6902 31.5 21.1384 31.5 21.7472V26.5685Z" fill="#5A5A5A"/>
<path d="M20.9258 3.22557C20.9258 2.66966 21.407 2.23202 21.9532 2.33564C27.3895 3.36696 31.5007 8.1436 31.501 13.8799V18.3115C31.501 18.7453 31.2046 19.1238 30.7812 19.2183C28.0956 19.8174 25.0847 20.2045 21.8851 20.3247C21.3587 20.3444 20.9258 19.9197 20.9258 19.393V18.2686C20.9258 17.8343 21.2293 17.4671 21.6252 17.2888C23.0141 16.6632 23.9814 15.2676 23.9814 13.6455V10.3555C23.9814 8.7333 23.0142 7.33696 21.6253 6.71124C21.2293 6.53286 20.9258 6.16566 20.9258 5.73137V3.22557Z" fill="#5A5A5A"/>
<path fill-rule="evenodd" clip-rule="evenodd" d="M18.5752 3.22357C18.5752 2.66766 18.0939 2.23003 17.5478 2.33363C12.1114 3.36481 8.00012 8.14049 8 13.8769V18.3076C8 18.7414 8.29634 19.1199 8.71974 19.2143C11.4053 19.8134 14.4163 20.2005 17.6158 20.3207C18.1422 20.3405 18.5752 19.9157 18.5752 19.389V18.2637C18.5752 17.8294 18.2717 17.4622 17.8758 17.2839C16.4868 16.6583 15.5196 15.2627 15.5195 13.6406V10.3505C15.5195 8.72831 16.4867 7.33202 17.8757 6.70631C18.2717 6.52794 18.5752 6.16073 18.5752 5.72644V3.22357Z" fill="#5A5A5A"/>
<rect x="17.165" y="7.76758" width="5.17021" height="8.46035" rx="2.58511" fill="white"/>
</svg>
