<svg preserveAspectRatio="none" width="100%" height="100%" overflow="visible" style="display: block;" viewBox="0 0 31.318 31.3177" fill="none" xmlns="http://www.w3.org/2000/svg">
<path id="Union" d="M13.5908 21.9701L4.24316 31.3177L0 27.0755L9.34766 17.7279L13.5908 21.9701ZM7.22656 2.87827L6.16504 6.05991L7.4834 7.37827L9.41211 6.47788L24.8398 21.9066L23.9395 23.8343L25.2578 25.1527L28.4395 24.0921L29.8535 25.5062L24.1973 31.1624L22.7832 29.7484L23.8438 26.5667L22.5254 25.2484L20.5977 26.1488L5.16992 10.721L6.06934 8.79233L4.75098 7.47397L1.56934 8.53549L0.155273 7.12143L5.8125 1.4642L7.22656 2.87827ZM22.7832 1.4642C24.7357 -0.488099 27.9009 -0.488037 29.8535 1.4642C31.8061 3.41683 31.8061 6.58287 29.8535 8.53549C28.6969 9.69194 27.1149 10.1632 25.6113 9.94956L20.6611 14.8998L16.4189 10.6566L21.3691 5.70737C21.1555 4.20366 21.6266 2.62085 22.7832 1.4642ZM27.9492 3.36948C27.049 2.46925 25.5888 2.46939 24.6885 3.36948C23.7882 4.26978 23.7882 5.72992 24.6885 6.63022C25.5888 7.53034 27.049 7.53046 27.9492 6.63022C28.8492 5.72996 28.8493 4.26972 27.9492 3.36948Z" fill="var(--fill-0, white)"/>
</svg>
