<svg preserveAspectRatio="none" width="100%" height="100%" overflow="visible" style="display: block;" viewBox="0 0 30 30" fill="none" xmlns="http://www.w3.org/2000/svg">
<path id="Union" d="M15 0C23.2843 0 30 6.71573 30 15C30 23.2843 23.2843 30 15 30C6.71573 30 0 23.2843 0 15C0 6.71573 6.71573 0 15 0ZM15 2.55176C8.12509 2.55176 2.55176 8.12509 2.55176 15C2.55176 21.8749 8.12509 27.4482 15 27.4482C21.8749 27.4482 27.4482 21.8749 27.4482 15C27.4482 8.12509 21.8749 2.55176 15 2.55176ZM15 4C21.0751 4 26 8.92487 26 15C26 21.0751 21.0751 26 15 26C8.92487 26 4 21.0751 4 15C4 8.92487 8.92487 4 15 4ZM15 9.50488C11.9651 9.50488 9.50488 11.9651 9.50488 15C9.50488 18.0349 11.9651 20.4951 15 20.4951C18.0349 20.4951 20.4951 18.0349 20.4951 15C20.4951 11.9651 18.0349 9.50488 15 9.50488ZM15 12C16.6569 12 18 13.3431 18 15C18 16.6569 16.6569 18 15 18C13.3431 18 12 16.6569 12 15C12 13.3431 13.3431 12 15 12Z" fill="var(--fill-0, white)"/>
</svg>
