<svg preserveAspectRatio="none" width="100%" height="100%" overflow="visible" style="display: block;" viewBox="0 0 14 34" fill="none" xmlns="http://www.w3.org/2000/svg">
<path id="Subtract" d="M14 18C14 20.7061 12.4631 23.0508 10.2158 24.2158L14 28V34H9V28L7 26L5 28V34H0V28L3.7832 24.2158C1.53636 23.0507 0 20.7058 0 18V12H14V18ZM8.5 0C9.32843 0 10 0.671573 10 1.5C10 1.88717 9.85215 2.23878 9.61133 2.50488C12.1836 3.54003 14 6.05729 14 9H0C0 6.05729 1.81637 3.54003 4.38867 2.50488C4.14799 2.23881 4 1.88704 4 1.5C4 0.671661 4.67169 0.000142491 5.5 0H8.5Z" fill="var(--fill-0, white)"/>
</svg>
