<svg preserveAspectRatio="none" width="100%" height="100%" overflow="visible" style="display: block;" viewBox="0 0 29.9991 29.9532" fill="none" xmlns="http://www.w3.org/2000/svg">
<path id="Union" d="M7.74978 19.7471C10.4479 19.8839 12.5935 22.1148 12.5935 24.8468L12.5867 25.1095C12.4498 27.8073 10.219 29.9532 7.48709 29.9532L7.22439 29.9464C4.61343 29.8141 2.51999 27.7203 2.38748 25.1095L2.38064 24.8468C2.38064 22.0267 4.66694 19.7404 7.48709 19.7403L7.74978 19.7471ZM3.35916 2.08699C7.01691 -0.915206 12.2978 -0.623463 15.6062 2.60848L15.6482 2.5743L16.2185 3.26863C16.2438 3.29857 16.2707 3.32813 16.2957 3.35848C16.3206 3.38886 16.3444 3.42163 16.3689 3.45223L28.5301 18.2657C28.5555 18.2954 28.5832 18.3252 28.6082 18.3555C30.7548 20.9709 30.3744 24.8324 27.7596 26.9796C25.2259 29.059 21.5237 28.7674 19.3426 26.3702L19.1355 26.1309L12.323 17.8321C8.7634 19.1218 4.62707 18.1151 2.08768 15.0225C-1.13327 11.0993 -0.564093 5.30793 3.35916 2.08699ZM7.48709 21.7403C5.77145 21.7404 4.38064 23.1313 4.38064 24.8468C4.38085 26.562 5.77157 27.9532 7.48709 27.9532C9.20262 27.9532 10.5933 26.562 10.5935 24.8468C10.5935 23.1313 9.20274 21.7403 7.48709 21.7403ZM27.0301 19.6563C25.5986 17.9129 23.0248 17.6599 21.281 19.0909C19.5374 20.5224 19.2842 23.0962 20.7156 24.8399C22.1472 26.5828 24.7211 26.8364 26.4646 25.4054C28.2078 23.974 28.4608 21.3999 27.0301 19.6563ZM16.4529 14.8223C16.0403 15.3533 15.5658 15.8503 15.0242 16.295C14.7578 16.5137 14.4803 16.7127 14.198 16.8966L17.8172 21.3048C17.9901 20.1874 18.4716 19.1147 19.2469 18.2247L16.4529 14.8223ZM18.3816 9.12117C18.3907 10.4388 18.1175 11.7527 17.5721 12.9659L20.824 16.9278C21.8491 16.3387 22.9973 16.0743 24.1287 16.1221L18.3816 9.12117ZM14.7176 4.65828C12.2124 1.60687 7.70672 1.16421 4.65506 3.66902C1.6037 6.17418 1.16072 10.6791 3.6658 13.7305C6.17104 16.7816 10.6758 17.2245 13.7273 14.7198C16.7787 12.2148 17.2223 7.70974 14.7176 4.65828ZM6.59939 6.03426C8.34318 4.60292 10.9169 4.85609 12.3484 6.59969C13.7798 8.34342 13.5267 10.9173 11.783 12.3487C10.0393 13.78 7.46554 13.5267 6.03396 11.7833C4.60248 10.0396 4.85564 7.46574 6.59939 6.03426Z" fill="var(--fill-0, white)"/>
</svg>
