<svg preserveAspectRatio="none" width="100%" height="100%" overflow="visible" style="display: block;" viewBox="0 0 28 28.9629" fill="none" xmlns="http://www.w3.org/2000/svg">
<path id="Union" d="M4.71777 6.83887C4.80437 6.92542 4.89986 6.99763 5 7.05859V15C5 19.6325 8.50019 23.4448 13 23.9424V28.9629C5.73479 28.4501 0 22.3957 0 15V2.12109L4.71777 6.83887ZM28 15L27.9951 15.3613C27.8119 22.5921 22.1465 28.4585 15 28.9629V23.9424C19.4998 23.4448 23 19.6325 23 15V6.99121C23.0631 6.94538 23.1247 6.89575 23.1816 6.83887L28 2.02051V15ZM15 8V20H13V8H15ZM21.0605 4.71777C20.974 4.80437 20.9018 4.89986 20.8408 5H7.05859C6.99762 4.89986 6.92542 4.80437 6.83887 4.71777L2.12109 0H25.7783L21.0605 4.71777Z" fill="var(--fill-0, white)"/>
</svg>
