<svg preserveAspectRatio="none" width="100%" height="100%" overflow="visible" style="display: block;" viewBox="0 0 32 32" fill="none" xmlns="http://www.w3.org/2000/svg">
<path id="Intersect" d="M20 31.4951C18.7215 31.8242 17.3813 32 16 32C13.7857 32 11.6766 31.5496 9.75879 30.7363L20 19.1113V31.4951ZM29.6631 24.3291C27.8426 27.309 25.0749 29.6466 21.7783 30.9238V16.4443L29.6631 24.3291ZM8.1748 29.958C5.09285 28.2265 2.6426 25.5044 1.25586 22.2227H15.1113L8.1748 29.958ZM31.6025 12.4443C31.8621 13.5879 32 14.7779 32 16C32 18.396 31.4722 20.6685 30.5283 22.709L20 12.4443H31.6025ZM12.8896 20.4443H0.626953C0.219712 19.0332 0 17.5423 0 16C0 13.7 0.485615 11.5136 1.35938 9.53711L12.8896 20.4443ZM10.667 16.4443L2.25781 7.80176C4.15687 4.62532 7.1257 2.16278 10.667 0.911133V16.4443ZM16 0C18.2812 0 20.4503 0.478543 22.4141 1.33887L12 13.7783V0.503906C13.2785 0.174855 14.6188 0 16 0ZM24.251 2.28906C27.402 4.18938 29.8441 7.14526 31.0889 10.667H16.8896L24.251 2.28906Z" fill="var(--fill-0, white)"/>
</svg>
