<svg preserveAspectRatio="none" width="100%" height="100%" overflow="visible" style="display: block;" viewBox="0 0 15.666 32.5273" fill="none" xmlns="http://www.w3.org/2000/svg">
<path id="Union" d="M11.3145 2.94531V17.6777C13.8931 18.9597 15.666 21.6192 15.666 24.6943C15.666 29.0204 12.1591 32.5273 7.83301 32.5273C3.50698 32.5273 4.94797e-05 29.0204 0 24.6943C3.45346e-05 21.2841 2.17978 18.3841 5.22168 17.3086V10.7686L7.29199 8.69727L5.41699 6.82227L7.30273 4.93652L5.36719 3.00098L8.36914 0L11.3145 2.94531ZM7.83301 24.6943C6.39101 24.6944 5.22168 25.8637 5.22168 27.3057C5.22185 28.7475 6.39112 29.916 7.83301 29.916C9.27492 29.916 10.4442 28.7475 10.4443 27.3057C10.4443 25.8636 9.27503 24.6944 7.83301 24.6943Z" fill="var(--fill-0, white)"/>
</svg>
