<svg preserveAspectRatio="none" width="100%" height="100%" overflow="visible" style="display: block;" viewBox="0 0 20 40" fill="none" xmlns="http://www.w3.org/2000/svg">
<path id="Union" d="M10 0C14.9706 0 19 4.02944 19 9C19 13.7132 16.2549 18.2227 13.5508 20.6504C17.3205 22.0828 20 25.7278 20 30C20 35.5228 15.5228 40 10 40C4.47715 40 0 35.5228 0 30C0 25.7282 2.67901 22.0831 6.44824 20.6504C3.74431 18.2225 1 13.7129 1 9C1 4.02944 5.02944 0 10 0ZM10 2C6.13401 2 3 5.13401 3 9C3 11.9373 4.28057 14.9016 5.97559 17.165C6.81543 18.2865 7.71049 19.1723 8.50977 19.7578C8.66881 19.8743 8.8172 19.9711 8.95215 20.0547C9.29655 20.0188 9.64611 20 10 20C10.3536 20 10.7028 20.0189 11.0469 20.0547C11.182 19.971 11.3309 19.8745 11.4902 19.7578C12.2895 19.1723 13.1846 18.2865 14.0244 17.165C15.7194 14.9016 17 11.9373 17 9C17 5.13401 13.866 2 10 2Z" fill="var(--fill-0, white)"/>
</svg>
