<svg preserveAspectRatio="none" width="100%" height="100%" overflow="visible" style="display: block;" viewBox="0 0 28.001 36.001" fill="none" xmlns="http://www.w3.org/2000/svg">
<path id="Union" d="M8.08496 0C8.56125 2.83739 11.0272 4.99981 14 5C16.973 5 19.4397 2.83753 19.916 0H22.001V36.001H17.001V22.001H11V36.001H6V0H8.08496ZM4 20H0V4C0 4 0.166633 2.00003 1.5 1C2.8334 -1.9908e-05 4 0 4 0V20ZM24.001 0C24.0129 2.62864e-05 25.1744 0.00512039 26.501 1C27.8342 2.00006 28.001 4 28.001 4V20H24.001V0Z" fill="var(--fill-0, white)"/>
</svg>
