<svg preserveAspectRatio="none" width="100%" height="100%" overflow="visible" style="display: block;" viewBox="0 0 29.9997 30.0005" fill="none" xmlns="http://www.w3.org/2000/svg">
<path id="Union" d="M15.7663 0.0195785C19.011 0.185583 22.1083 1.40117 24.5973 3.47368L27.072 1.00005L28.7614 10.6241L19.1364 8.93559L21.9753 6.09575C20.1447 4.66174 17.9124 3.82064 15.5778 3.70122C12.9897 3.56886 10.4344 4.32899 8.33953 5.85454C6.24461 7.38022 4.73631 9.57909 4.06805 12.0831C3.39981 14.587 3.61152 17.2448 4.66766 19.6114C5.7238 21.978 7.5608 23.9101 9.87078 25.085C12.1808 26.2599 14.8244 26.6058 17.3591 26.0655C19.8936 25.5251 22.1657 24.131 23.7956 22.1163C25.4255 20.1016 26.3149 17.5886 26.3141 14.9971L29.9997 14.9952C30.0008 18.431 28.8227 21.7634 26.6618 24.4346C24.5008 27.1058 21.4879 28.9545 18.1276 29.6709C14.7672 30.3873 11.2625 29.9278 8.19989 28.3702C5.13732 26.8125 2.70168 24.251 1.30145 21.1133C-0.0986933 17.9757 -0.37842 14.4525 0.507503 11.1329C1.39348 7.81311 3.39216 4.89778 6.16961 2.87505C8.94702 0.852427 12.3349 -0.155901 15.7663 0.0195785ZM14.5007 6.00005C15.3288 6.00027 16.0005 6.67186 16.0007 7.50005V14.877L19.8395 18.7159C20.4252 19.3015 20.425 20.2512 19.8395 20.837C19.2538 21.4226 18.3043 21.4225 17.7184 20.837L13.7165 16.836C13.6705 16.79 13.6293 16.7406 13.5905 16.6905C13.2325 16.4163 13.0007 15.9858 13.0007 15.5V7.50005C13.0008 6.67173 13.6723 6.00005 14.5007 6.00005Z" fill="var(--fill-0, white)"/>
</svg>
