<svg preserveAspectRatio="none" width="100%" height="100%" overflow="visible" style="display: block;" viewBox="0 0 29.0938 30" fill="none" xmlns="http://www.w3.org/2000/svg">
<path id="Union" d="M5.03125 30H0.03125V27H5.03125V30ZM13.0625 30H8.0625V27H13.0625V30ZM21.0625 30H16.0625V27H21.0625V30ZM29.0625 30H24.0625V27H29.0625V30ZM5.03125 25H0.03125V6H5.03125V25ZM13.0625 25H8.0625V6H13.0625V25ZM21.0625 25H16.0625V6H21.0625V25ZM29.0625 25H24.0625V6H29.0625V25ZM2.53125 0C5.53125 0 5.03125 4 5.03125 4H0.03125C0.03125 4 -0.46875 0 2.53125 0ZM10.5625 0C13.5625 0 13.0625 4 13.0625 4H8.0625C8.0625 4 7.5625 0 10.5625 0ZM18.5625 0C21.5625 0 21.0625 4 21.0625 4H16.0625C16.0625 4 15.5625 0 18.5625 0ZM26.5625 0C29.5625 0 29.0625 4 29.0625 4H24.0625C24.0625 4 23.5625 0 26.5625 0Z" fill="var(--fill-0, white)"/>
</svg>
