<svg width="32" height="32" viewBox="0 0 32 32" fill="none" xmlns="http://www.w3.org/2000/svg">
<path d="M18.6673 7.99923C18.6673 8.70647 18.3864 9.38475 17.8863 9.88484C17.3862 10.3849 16.7079 10.6659 16.0007 10.6659C15.2934 10.6659 14.6151 10.3849 14.115 9.88484C13.6149 9.38475 13.334 8.70647 13.334 7.99923C13.334 7.29198 13.6149 6.6137 14.115 6.11361C14.6151 5.61351 15.2934 5.33256 16.0007 5.33256C16.7079 5.33256 17.3862 5.61351 17.8863 6.11361C18.3864 6.6137 18.6673 7.29198 18.6673 7.99923ZM20.6207 10.6659C21.0883 9.85509 21.3343 8.9355 21.334 7.9995C21.3337 7.06351 21.087 6.14409 20.6189 5.3336C20.1507 4.52311 19.4774 3.85011 18.6668 3.3822C17.8562 2.9143 16.9366 2.66797 16.0007 2.66797C15.0647 2.66797 14.1452 2.9143 13.3345 3.3822C12.5239 3.85011 11.8506 4.52311 11.3825 5.3336C10.9143 6.14409 10.6676 7.06351 10.6673 7.9995C10.667 8.9355 10.913 9.85509 11.3807 10.6659H6.75532C6.44049 10.6658 6.13579 10.7772 5.89517 10.9802C5.65456 11.1832 5.49355 11.4649 5.44066 11.7752L2.93399 26.4419C2.90138 26.6332 2.91094 26.8293 2.96199 27.0166C3.01303 27.2038 3.10434 27.3777 3.22953 27.526C3.35472 27.6743 3.51078 27.7935 3.68681 27.8752C3.86283 27.9569 4.05458 27.9993 4.24866 27.9992H27.754C27.9482 27.9993 28.1401 27.9569 28.3162 27.8751C28.4924 27.7933 28.6485 27.674 28.7737 27.5255C28.8989 27.3771 28.9902 27.2031 29.0411 27.0157C29.0921 26.8283 29.1015 26.632 29.0687 26.4406L26.562 11.7739C26.5088 11.4636 26.3475 11.1821 26.1066 10.9793C25.8657 10.7765 25.5609 10.6655 25.246 10.6659H20.6207Z" fill="white"/>
</svg>
